<svg xmlns="http://www.w3.org/2000/svg" viewBox="1.9 45 87.6 36">
<!-- SVG created with Arrow, by QuiverAI (https://quiver.ai) -->
  <style type="text/css">.cls-0 {fill:#FAD9EF;}
.cls-1 {fill:#BBD1F9;}
.cls-2 {fill:#8AC3A1;}
.cls-3 {fill:#62C18D;}</style>
  <path class="cls-0" d="m22.9 69.4c-0.5-2.2-2.4-4-5.3-5.1v-0.2c2-1.2 3.6-2.8 3.9-5.8 0.2-0.8-0.8-0.5-1.6-0.3s-2.1 0-2.3 0.5l-0.3 1c-0.3 1.2-1.1 2-1.9 2.4-0.3-0.3 0.4-3.8-0.5-3.9-4.7-0.8-8.3-3.1-12.3-5.4h-0.1c-0.2 0.1-0.2 0.4-0.2 0.9v26.3c0 0.1-0.1 0.6 0.7 0.6 2.8-0.1 8 0.2 11.5-0.1 4.3-0.2 6.3-2.1 7.9-4.6 0.6-1.1 1-1.4 1.3-1.5 2.2-1.4 1.2-4-0.8-4.8zm-8.1 6.1c-0.4-0.1-0.4-0.4-0.4-0.5l0.1-5.8c0-0.3 0.2-0.4 0.4-0.4h0.1c2.2 0 3.4 1 3.4 2.9 0 2.7-2.3 3.7-3.6 3.8z"/>
  <path class="cls-0" d="m34.9 57c2.2 0 3.9 0.6 5.7 1.8 0.4 0.3 0.4 0.6 0.2 1-0.4 0.5-0.6 1.1-0.8 1.7-0.1 0.4-0.4 0.4-0.7 0.1-1.5-1.2-2.8-1.7-4.7-1.7-2.2 0-4 1-4 3.1 0 3.2 4 3.4 7.2 5.1 2 0.8 4.5 2.1 4.5 5.7 0 4-3.3 6.1-8.1 6.1-3.3 0-5.2-1.1-7.3-2.6-0.7-0.4-1.3-0.7-0.6-1.3l0.8-0.9c0.6-0.6 0.7 0 1.9 0.7 1 0.7 2.7 1.8 5.2 1.8s4.9-0.9 4.9-3.4c0-2.8-2.9-3.3-6.8-5.2-2.4-0.9-5.2-2.5-5.2-5.8-0.1-3.1 2.6-6.2 7-6.2h0.8z"/>
  <path class="cls-1" d="m47.5 69.1c0-0.5 0.4-0.5 0.8-0.5h8.4c0.7 0 0.4 0.8 0.4 1.5-0.5 0.9-1.3 1.3-1.7 1.3h-7.4c-0.4 0-0.6-0.2-0.6-0.6l0.1-1.7z"/>
  <path class="cls-1" d="m71.9 58.4c0.6 0 1.3-0.2 1.6 0.6l6.7 17.4c0.3 1-0.8 0.7-1.1 1.2l-0.9 0.9c-0.6 0.4-0.9 0.3-1.2-0.2l-1.1-3c-0.4-1.3-1.7-1.4-4.5-1.4h-3.9c-0.3 0-0.4 0.1-0.5 0.3l-2 5.6c-0.1 0.3-0.3 0.4-0.6 0.4h-2.7c-0.4 0-0.5-0.2-0.3-0.6 1.6-3.9 6-15.3 8-20.6 0.3-0.8 0.8-0.6 1.2-0.6h1.3zm-3.6 12.6c0.3 0 4.2-0.8 4.2-4.1 0-1-0.7-4.5-0.9-4.6l-2.8 8.5-0.5 0.2z"/>
  <path class="cls-1" d="m85 60c0-1.5 0.4-1.5 2.9-1.5 0.9 0 0.9 0.1 0.9 0.7v20.5c0 0.8-0.2 0.6-2.7 0.6-1 0.1-1.1-0.1-1.1-0.4v-19.9z"/>
  <path class="cls-2" d="m18.1 44.5c-3.9-0.1-8 3.4-7.6 8.5 0 0.3 0.3 0.5 0.6 0.2 1-1.1 3.1-2.2 5.8-2.2 3.2-0.1 4.8-0.4 5.2-3.6 0.3-1.9-2.2-2.8-4-2.9z"/>
  <path class="cls-3" d="m9 48c-0.6-1-2.3-1-2.4 1.1 0 1.9 2 3.7 2.6 4.2 0.7 0.5 0.4-0.3 0.2-1.6-0.2-1.9 0-3.1-0.4-3.7z"/>
</svg>