<svg xmlns="http://www.w3.org/2000/svg" viewBox="0 0 145.6 79">
<!-- SVG created with Arrow, by QuiverAI (https://quiver.ai) -->
  <style type="text/css">.cls-0 {fill:#FAD8EE;}
.cls-1 {fill:#BDD1F8;}
.cls-2 {fill:#89C1A1;}
.cls-3 {fill:#5DBE8D;}</style>
  <path class="cls-0" d="m35.1 50.1c-0.7-2.9-3.1-6.3-9.1-8.5v-0.2c5.1-2.8 6.3-6.7 6.4-10 0-1.2-1.8-0.4-3.9-0.1-0.9 0.1-2.7-0.5-3 2.1-0.4 2.3-2 3.8-3.3 4.2l-0.3-0.7s0.2-4.3-0.1-5.4c-0.3-0.7-1.4-0.3-6.3-1.9s-13.4-7.1-14.2-7.7c-0.3-0.2-0.5 0.5-0.5 0.8v44.9c0 0.7 0.2 1.2 0.8 1.2 6-0.1 15.8 0.4 20.9-0.3 7.2-0.9 9.6-4.6 11.9-8.5 1-1.8 3.4-2.2 3.4-5.4 0-2.3-2.4-3.6-2.7-4.5zm-14 8.9-0.1-9.1c0.1-0.7 0.5-0.9 1.1-0.8 3.4 0 5.4 1.8 5.4 4.9s-1.9 5.5-5.6 6c-0.5 0-1-0.2-0.8-1z"/>
  <path class="cls-0" d="m64.2 32.9c1.1 0.6 0.5 1.5-0.1 2.4-0.3 0.5-0.7 2.3-1.2 2.2-0.5 0-2.8-3.2-8.5-3.2-3.6 0-7 1.8-7 5.3 0 2.9 2.3 4.5 5.7 5.8l6.5 2.8c4 1.6 7.5 3.9 7.5 9.3 0 6.3-4.3 11.3-13.6 11.3-5.3 0-9-2.2-12.9-5.1-1-0.8-0.2-1.3 0.4-2l0.8-0.9c0.9-1.4 1.6-1.2 2.7-0.2 2.8 2 5.5 3.3 9.4 3.3 5 0 7.9-2 7.9-5.9 0-2.1-1-3.7-4-5l-7.5-3.2c-5-2-8.5-5.3-8.5-10.1 0-5.6 5.1-10.1 12.7-10.1 3.8 0 7.2 1.5 9.7 3.3z"/>
  <path class="cls-1" d="m75.8 52.5v-2.8c0-0.7 0.5-1 1.1-1h14.4c0.8 0 1.1 0.4 1.1 1v1c0 0.7-1.3 2.8-3.2 2.8h-12c-1 0-1.4-0.3-1.4-1z"/>
  <path class="cls-1" d="m129.7 63.5c-1.1 0.3-2 2.5-3.2 2.4-0.7 0-0.8-0.5-1-1l-1.2-3.4c-1-3.1-0.9-3.9-5.8-3.9h-9.3c-0.7 0-0.8 1-2.7 6.1l-1.7 4.5c-0.2 0.7-0.5 0.8-1 0.9h-4.4c-1 0-0.9-0.5-0.6-1.3 3.2-7.5 11.3-29.1 13.8-35.2 0.3-0.7 0.7-1 1.8-1h3.5c1.2 0 1.5 0.5 1.7 1.2l11.5 29c0.4 1.2-0.8 1.5-1.4 1.7zm-13.8-25.5-5 14.7c4.6-1.3 6.6-3.3 6.6-6.6 0-2-1.1-8.4-1.6-8.1z"/>
  <path class="cls-1" d="m138.8 34.1c0-2.1 0.9-2.3 5.4-2.3 0.7 0 0.7 0.5 0.7 1v34.8c0 1.1-0.3 1.1-1.3 1.1h-3.6c-0.8 0-1.2-0.1-1.2-0.9v-33.7z"/>
  <path class="cls-2" d="m14.1 23c-0.6-8.2 7.8-16.1 15.8-13.7 1.9 0.6 4.1 1.5 3.6 3.9-0.8 5.6-4.8 5.8-9 6-3 0.2-6.7 1.4-9.4 4.2-0.2 0.2-1 0.2-1-0.4z"/>
  <path class="cls-3" d="m12.1 13.8c0.9 0.8 0.6 4.3 1 6.6h-0.1c0.6 2.8 0.2 3.2-0.5 2.6-5.1-3.8-5.4-8.5-3.3-9.6 0.7-0.3 1.9-0.5 2.9 0.4z"/>
</svg>