<?xml version="1.0" encoding="utf-8"?>
<!-- Generator: Adobe Adobe Illustrator 24.2.0, SVG Export Plug-In . SVG Version: 6.00 Build 0)  -->
<svg version="1.1" xmlns="http://www.w3.org/2000/svg" xmlns:xlink="http://www.w3.org/1999/xlink" x="0px" y="0px" width="391px"
	 height="167px" viewBox="0 0 391 167" style="enable-background:new 0 0 391 167;" xml:space="preserve">
<style type="text/css">
	.st0{fill:#FFDEF6;}
	.st1{fill:#BFD5FF;stroke:#BFD5FF;stroke-miterlimit:10;}
	.st2{fill:#BFD5FF;}
	.st3{fill:#8BC4A4;}
	.st4{fill:#5FC28A;}
</style>
<g id="Layer_1">
	<g id="Layer_2">
	</g>
	<path class="st0" d="M98.5,108.6c0.4,1.6,1,2.6,2.2,3.3c8.4,5.6,8.5,15.3,0,20.7c-1.9,1.2-3,2.8-4.1,4.7
		c-6.7,12.2-16.6,19.7-30,21.1c-17.4,1.8-35,0.4-52.5,0.8c-2.5,0.1-3-1.3-3-3.5c0-6.6,0-13.3,0-19.9c0-31.4,0-62.7-0.1-94.1
		c0-1.2-0.3-2.5,1.1-3.4c4.4,2.6,8.9,5.2,13.4,7.7c9.9,5.5,20,10.4,30.9,13.5c2.3,0.7,4.7,1.3,7.1,1.6c2,0.3,2.7,1.3,2.8,3.3
		c0.1,3,0.6,5.9,0.2,8.9c-0.2,1.3-0.6,2.9,0.7,4.4c4.6-2.1,7.3-6,8-10.9c0.6-3.8,2.1-5.1,5.6-4.9c3,0.2,5.8-0.9,8.7-1.4
		c3.2-0.6,3.8-0.2,3.3,3.3c-1.3,9.4-5.4,17.1-13.3,22.2c-0.7,0.5-1.4,0.9-2.1,1.5c-0.1,0.1-0.2,0.4-0.5,1
		C86.8,91.9,94.9,97.4,98.5,108.6 M74.5,110c-2.5-1-5.1-1.5-7.7-1.8c-2.1-0.2-3.3,0.7-3.2,3c0.3,7.6,0.2,15.2-0.5,22.8
		c-0.3,3,1.2,3.8,3.6,3.3c3.9-0.8,7.5-2.4,10.2-5.5C82.7,125.3,81.7,114,74.5,110z"/>
	<path class="st1" d="M339,150.7c-3.4,1.4-4.2,1.1-5.3-1.8c-1.4-4.1-2.9-8.2-4.3-12.3c-1.4-4.1-3.3-5.4-8.1-5.8
		c-10-0.8-20.1-0.2-30.1-0.4c-1.9,0-2.5,0.9-3,2.2c-1.9,5.2-3.8,10.5-5.7,15.7c-1.1,3-2.1,5.9-3.1,8.9c-0.5,1.5-1.4,2.1-3.1,2
		c-3.8-0.1-7.7,0-11.4,0c-1-1-0.4-1.9-0.1-2.7c6-15.9,12.1-31.9,18.1-47.8c5.3-14,10.6-28,15.8-42c0.9-2.4,1.9-3.6,5-3.3
		c3,0.3,6.1,0,9.1-0.1c2.4-0.1,3.7,0.6,4.5,2.7c5.8,15.6,11.7,31.2,17.6,46.7c3.6,9.5,7.2,18.9,10.8,28.3c0.8,2.1,1,3.5-1.6,4.7
		C342.1,146.8,340.9,149,339,150.7 M312.5,95.1c-0.6-4-1.3-7-2-9.7s-1.1-5.1-3-7.8c-4.5,13.7-9.5,27.1-13.5,40.9
		c6.1-2.2,10.7-3.9,14.9-8.3c1.4-1.5,3.2-4.7,3.4-6.7C312.6,100.5,313,98.5,312.5,95.1z"/>
	<path class="st0" d="M136.2,73.2c-6.8,5.9-6.5,14.9,0.7,20.2c5,3.6,11,5.2,16.5,7.8c4.8,2.2,9.7,4,14.4,6.4
		c9.8,5,15.2,12.9,14.9,23.7c-0.3,12.2-6.8,20.9-18.5,25c-16.8,6-32.6,3.4-46.8-7.4c-6.5-5-5.9-3.8-0.8-9.6c3.1-3.5,3.1-3.4,7.1-0.5
		c10.1,7.5,21.2,10.8,33.8,7.1c5.8-1.7,9.9-5.4,10.8-11.4c1-6.5-1.4-11.5-7.4-14.8c-6.5-3.5-13.4-6.1-20.1-9
		c-5.1-2.2-10.2-4.3-14.5-7.9c-13.8-11.6-11.8-32.2,4.3-40.6c13.8-7.2,27.6-5.9,40.8,1.6c4.9,2.8,6.7,2.8,2.4,8.8
		c-0.5,0.7-0.8,1.6-1.1,2.5c-1.1,3.3-1.2,3.3-4.1,1.1c-4.3-3.3-9.2-5.5-14.6-6.3C148,69,141.8,69.3,136.2,73.2z"/>
	<path class="st2" d="M367,68.1c0.2-3.2,1.4-4.3,4.8-4.6c2.4-0.2,4.8-0.3,7.3-0.3c3.4,0,3.8,0.3,3.8,3.2c0,22.4,0,44.9,0,67.3
		c0,7.6-0.1,15.2,0.1,22.8c0,2.1-0.8,2.9-3.3,2.7c-3.3-0.1-6.6-0.1-9.9,0c-2,0-2.8-0.6-2.7-2.3c0.1-2.2,0-4.5,0-6.7
		C367,123,367,95.7,367,68.1z"/>
	<path class="st3" d="M66.1,32.9c-6.3,1.5-11.9,4-16.6,8.2c-0.6,0.6-1.2,1.5-2.3,1.1c-1.2-0.4-1-1.6-1-2.6
		C45.6,23.6,57.8,9.2,74.5,6.5c6.2-1,12.1,0,17.5,3.2c3.5,2,4.5,4.6,3.6,8.6c-2.1,9.1-5.9,12.3-15.1,13.3C75.8,32,71,31.6,66.1,32.9
		z"/>
	<path class="st2" d="M248,113.4c-2,3.2-4.2,6.2-8,6.3c-10.5,0.2-21.1,0.1-31.7,0.1c-2.2,0-3-1-3-3.1c0.1-2.2,0.3-4.4,0.1-6.6
		c-0.2-2.5,0.9-3.1,3.1-3.1c11,0.1,21.9,0,32.9,0c0.2,0,0.4,0,0.6,0C248.6,107.1,248,106.5,248,113.4z"/>
	<path class="st4" d="M42.3,42.3c-5.1-3.7-9.3-7.9-11.2-14c-0.8-2.4-0.8-4.9,0.1-7.3c0.9-2.1,2.2-3.9,4.8-3.8
		c2.6,0.1,4.1,1.9,4.7,4.3c1,3.8,0.8,7.7,1.4,11.5c0.4,2.2,0.7,4.5,1.1,6.7C43.4,40.7,43.9,41.7,42.3,42.3z"/>
</g>
<g id="Layer_3">
</g>
</svg>
