<svg xmlns="http://www.w3.org/2000/svg" width="391" height="167" version="1.0" viewBox="0 0 293.25 125.25"><defs><clipPath id="a"><path d="M187 36h83v88.5h-83Zm0 0"/></clipPath></defs><path fill="#ffdef6" d="M73.93 80.96c.3 1.2.75 1.94 1.64 2.47 6.27 4.17 6.34 11.4 0 15.43-1.41.9-2.23 2.09-3.05 3.5-5 9.1-12.38 14.7-22.37 15.73-12.97 1.34-26.1.3-39.14.6-1.86.08-2.23-.97-2.23-2.61v-14.84c0-23.4 0-46.74-.08-70.15 0-.9-.22-1.86.82-2.54 3.28 1.94 6.64 3.88 10 5.74 7.37 4.1 14.9 7.76 23.03 10.07 1.71.52 3.5.97 5.29 1.2 1.5.22 2.02.96 2.09 2.45.07 2.24.45 4.4.15 6.64-.15.97-.45 2.16.52 3.28a10.1 10.1 0 0 0 5.96-8.13c.45-2.83 1.57-3.8 4.18-3.65 2.24.15 4.32-.67 6.49-1.04 2.38-.45 2.83-.15 2.46 2.46-.98 7-4.03 12.74-9.92 16.55-.52.37-1.04.67-1.57 1.11-.07.08-.15.3-.37.75 7.38 2.54 13.42 6.63 16.1 14.98m-17.89 1.05a22 22 0 0 0-5.74-1.34c-1.57-.15-2.46.52-2.38 2.23.22 5.67.15 11.33-.38 17-.22 2.24.9 2.83 2.69 2.46 2.9-.6 5.59-1.79 7.6-4.1 4.33-4.85 3.58-13.27-1.79-16.25m0 0"/><path fill="#bfd5ff" d="M253.24 112.35c-2.54 1.04-3.13.82-3.95-1.34-1.05-3.06-2.16-6.11-3.21-9.17s-2.46-4.03-6.04-4.32c-7.45-.6-14.99-.15-22.44-.3-1.42 0-1.87.67-2.24 1.64-1.41 3.87-2.83 7.83-4.25 11.7-.82 2.24-1.56 4.4-2.3 6.64-.38 1.12-1.05 1.57-2.32 1.49-2.83-.08-5.74 0-8.5 0-.74-.74-.3-1.42-.07-2.01 4.47-11.86 9.02-23.79 13.49-35.64q5.94-15.66 11.78-31.31c.67-1.8 1.42-2.69 3.73-2.46 2.24.22 4.55 0 6.78-.08 1.8-.07 2.76.45 3.36 2.02a4634 4634 0 0 0 13.12 34.81q4.02 10.62 8.05 21.1c.6 1.57.75 2.61-1.2 3.5-1.48.83-2.38 2.47-3.8 3.73M233.49 70.9a67 67 0 0 0-1.5-7.23c-.51-2.01-.81-3.8-2.23-5.81-3.35 10.2-7.08 20.2-10.06 30.49 4.54-1.64 7.97-2.91 11.1-6.2 1.05-1.11 2.4-3.5 2.54-4.99.22-2.23.52-3.73.15-6.26m0 0"/><g clip-path="url(#a)"><path fill="none" stroke="#bfd5ff" stroke-miterlimit="10" stroke-width=".75" d="M253.24 112.35c-2.54 1.04-3.13.82-3.95-1.34-1.05-3.06-2.16-6.11-3.21-9.17s-2.46-4.03-6.04-4.32c-7.45-.6-14.99-.15-22.44-.3-1.42 0-1.87.67-2.24 1.64-1.41 3.87-2.83 7.83-4.25 11.7-.82 2.24-1.56 4.4-2.3 6.64-.38 1.12-1.05 1.57-2.32 1.49-2.83-.08-5.74 0-8.5 0-.74-.74-.3-1.42-.07-2.01 4.47-11.86 9.02-23.79 13.49-35.64q5.94-15.66 11.78-31.31c.67-1.8 1.42-2.69 3.73-2.46 2.24.22 4.55 0 6.78-.08 1.8-.07 2.76.45 3.36 2.02a4896 4896 0 0 0 13.12 34.81q4.03 10.62 8.05 21.1c.6 1.57.75 2.61-1.2 3.5-1.48.83-2.38 2.47-3.8 3.73M233.49 70.9a67 67 0 0 0-1.5-7.23c-.51-2.01-.81-3.8-2.23-5.81-3.35 10.2-7.08 20.2-10.06 30.49 4.54-1.64 7.97-2.91 11.1-6.2 1.05-1.11 2.4-3.5 2.54-4.99.22-2.23.52-3.73.15-6.26Zm0 0"/></g><path fill="#ffdef6" d="M102.04 54.57c-5.07 4.4-4.84 11.11.52 15.06 3.73 2.69 8.2 3.88 12.3 5.82 3.59 1.64 7.24 2.98 10.74 4.77 7.3 3.73 11.33 9.62 11.11 17.67-.23 9.1-5.07 15.58-13.8 18.64-12.52 4.47-24.3 2.53-34.88-5.52-4.85-3.73-4.4-2.83-.6-7.16 2.31-2.6 2.31-2.53 5.3-.37 7.52 5.59 15.8 8.05 25.2 5.3 4.32-1.27 7.37-4.03 8.04-8.5.75-4.85-1.04-8.58-5.51-11.04-4.85-2.6-10-4.55-14.99-6.7-3.8-1.65-7.6-3.22-10.81-5.9-10.29-8.65-8.8-24 3.2-30.27 10.3-5.37 20.59-4.4 30.43 1.2 3.65 2.08 5 2.08 1.78 6.56a7 7 0 0 0-.82 1.86c-.82 2.46-.9 2.46-3.05.82a23.4 23.4 0 0 0-10.89-4.7c-4.47-.67-9.1-.45-13.27 2.46m0 0"/><path fill="#bfd5ff" d="M274.11 50.77c.15-2.38 1.05-3.2 3.58-3.43q2.67-.22 5.44-.22c2.54 0 2.83.22 2.83 2.38v50.18c0 5.66-.07 11.33.08 17 0 1.56-.6 2.16-2.46 2a122 122 0 0 0-7.38 0c-1.5 0-2.09-.44-2.01-1.7.07-1.64 0-3.36 0-5-.08-20.28-.08-40.63-.08-61.21m0 0"/><path fill="#8bc4a4" d="M49.78 24.53c-4.7 1.11-8.87 2.98-12.38 6.11-.44.45-.9 1.12-1.71.82-.9-.3-.74-1.19-.74-1.94-.45-11.93 8.64-22.66 21.1-24.67a19 19 0 0 1 13.04 2.38c2.6 1.5 3.36 3.43 2.68 6.41-1.56 6.79-4.4 9.17-11.25 9.92-3.5.3-7.09 0-10.74.97m0 0"/><path fill="#bfd5ff" d="M185.4 84.54c-1.5 2.39-3.14 4.63-5.97 4.7-7.83.15-15.73.08-23.63.08-1.64 0-2.24-.75-2.24-2.32.07-1.64.22-3.28.07-4.92-.15-1.86.67-2.3 2.32-2.3 8.2.07 16.32 0 24.52 0h.45c4.92.07 4.47-.38 4.47 4.76m0 0"/><path fill="#5fc28a" d="M32.04 31.54c-3.8-2.76-6.94-5.9-8.35-10.44a8 8 0 0 1 .07-5.44c.67-1.57 1.64-2.91 3.58-2.84s3.05 1.42 3.5 3.2c.75 2.84.6 5.75 1.05 8.58.3 1.64.52 3.36.82 5 .15.74.52 1.49-.67 1.94m0 0"/></svg>