<svg xmlns="http://www.w3.org/2000/svg" viewBox="-16.629000425338745 0.557182788848877 122.23733472824097 122.23733472824097" width="512" height="512"><path fill="#ffdef6" d="M73.93 80.96c.3 1.2.75 1.94 1.64 2.47 6.27 4.17 6.34 11.4 0 15.43-1.41.9-2.23 2.09-3.05 3.5-5 9.1-12.38 14.7-22.37 15.73-12.97 1.34-26.1.3-39.14.6-1.86.08-2.23-.97-2.23-2.61v-14.84c0-23.4 0-46.74-.08-70.15 0-.9-.22-1.86.82-2.54 3.28 1.94 6.64 3.88 10 5.74 7.37 4.1 14.9 7.76 23.03 10.07 1.71.52 3.5.97 5.29 1.2 1.5.22 2.02.96 2.09 2.45.07 2.24.45 4.4.15 6.64-.15.97-.45 2.16.52 3.28a10.1 10.1 0 0 0 5.96-8.13c.45-2.83 1.57-3.8 4.18-3.65 2.24.15 4.32-.67 6.49-1.04 2.38-.45 2.83-.15 2.46 2.46-.98 7-4.03 12.74-9.92 16.55-.52.37-1.04.67-1.57 1.11-.07.08-.15.3-.37.75 7.38 2.54 13.42 6.63 16.1 14.98m-17.89 1.05a22 22 0 0 0-5.74-1.34c-1.57-.15-2.46.52-2.38 2.23.22 5.67.15 11.33-.38 17-.22 2.24.9 2.83 2.69 2.46 2.9-.6 5.59-1.79 7.6-4.1 4.33-4.85 3.58-13.27-1.79-16.25m0 0"/><path fill="#8bc4a4" d="M49.78 24.53c-4.7 1.11-8.87 2.98-12.38 6.11-.44.45-.9 1.12-1.71.82-.9-.3-.74-1.19-.74-1.94-.45-11.93 8.64-22.66 21.1-24.67a19 19 0 0 1 13.04 2.38c2.6 1.5 3.36 3.43 2.68 6.41-1.56 6.79-4.4 9.17-11.25 9.92-3.5.3-7.09 0-10.74.97m0 0"/><path fill="#5fc28a" d="M32.04 31.54c-3.8-2.76-6.94-5.9-8.35-10.44a8 8 0 0 1 .07-5.44c.67-1.57 1.64-2.91 3.58-2.84s3.05 1.42 3.5 3.2c.75 2.84.6 5.75 1.05 8.58.3 1.64.52 3.36.82 5 .15.74.52 1.49-.67 1.94m0 0"/></svg>