<?xml version="1.0" encoding="UTF-8"?>
<svg xmlns="http://www.w3.org/2000/svg" xmlns:xlink="http://www.w3.org/1999/xlink" width="300px" height="235px" viewBox="0 0 299 235" version="1.1">
<g id="surface1">
<path style=" stroke:none;fill-rule:nonzero;fill:rgb(100%,87.058824%,96.470588%);fill-opacity:1;" d="M 98.691406 114.855469 C 98.886719 115.542969 99.179688 115.980469 99.714844 116.324219 C 103.625 118.773438 103.625 123.082031 99.714844 125.429688 C 98.835938 125.96875 98.296875 126.65625 97.808594 127.535156 C 94.730469 132.921875 90.1875 136.203125 83.984375 136.839844 C 75.921875 137.621094 67.859375 137.035156 59.800781 137.179688 C 58.628906 137.230469 58.433594 136.59375 58.433594 135.613281 C 58.433594 132.675781 58.433594 129.789062 58.433594 126.851562 C 58.433594 112.996094 58.433594 99.140625 58.382812 85.335938 C 58.382812 84.796875 58.238281 84.257812 58.871094 83.867188 C 60.921875 84.992188 62.976562 86.167969 65.078125 87.292969 C 69.621094 89.691406 74.308594 91.894531 79.292969 93.214844 C 80.367188 93.511719 81.441406 93.804688 82.566406 93.949219 C 83.496094 94.097656 83.835938 94.539062 83.835938 95.417969 C 83.886719 96.742188 84.128906 98.015625 83.933594 99.335938 C 83.835938 99.925781 83.691406 100.609375 84.277344 101.292969 C 86.378906 100.363281 87.648438 98.652344 87.988281 96.496094 C 88.28125 94.832031 88.96875 94.246094 90.53125 94.34375 C 91.898438 94.441406 93.21875 93.949219 94.535156 93.707031 C 96.050781 93.460938 96.246094 93.609375 96.050781 95.175781 C 95.417969 99.335938 93.558594 102.714844 89.894531 104.964844 C 89.554688 105.164062 89.261719 105.40625 88.917969 105.601562 C 88.871094 105.652344 88.820312 105.75 88.675781 106.042969 C 93.316406 107.464844 97.078125 109.910156 98.691406 114.855469 M 87.648438 115.492188 C 86.523438 115.050781 85.304688 114.855469 84.082031 114.710938 C 83.152344 114.613281 82.566406 115.003906 82.617188 116.03125 C 82.761719 119.410156 82.714844 122.738281 82.371094 126.117188 C 82.226562 127.4375 82.957031 127.832031 84.03125 127.585938 C 85.839844 127.242188 87.453125 126.558594 88.773438 125.136719 C 91.457031 122.25 90.96875 117.253906 87.648438 115.492188 Z M 87.648438 115.492188 "/>
<path style=" stroke:none;fill-rule:nonzero;fill:rgb(74.901961%,83.529412%,100%);fill-opacity:1;" d="M 218.144531 131.992188 C 216.285156 132.871094 215.847656 132.675781 215.308594 130.914062 C 214.527344 128.417969 213.746094 125.871094 212.964844 123.375 C 212.183594 120.878906 211.207031 120.09375 208.566406 119.851562 C 203.144531 119.359375 197.671875 119.753906 192.25 119.605469 C 191.222656 119.554688 190.882812 120.144531 190.636719 120.925781 C 189.609375 124.109375 188.585938 127.339844 187.558594 130.523438 C 186.972656 132.335938 186.386719 134.144531 185.847656 135.957031 C 185.605469 136.839844 185.117188 137.230469 184.1875 137.179688 C 182.085938 137.132812 180.035156 137.179688 178.03125 137.179688 C 177.496094 136.542969 177.789062 136.054688 177.984375 135.566406 C 181.257812 125.824219 184.578125 116.082031 187.851562 106.335938 C 190.734375 97.820312 193.617188 89.25 196.402344 80.683594 C 196.890625 79.214844 197.429688 78.480469 199.136719 78.628906 C 200.75 78.773438 202.460938 78.628906 204.074219 78.527344 C 205.390625 78.429688 206.074219 78.871094 206.515625 80.195312 C 209.691406 89.742188 212.867188 99.238281 216.089844 108.738281 C 218.046875 114.511719 219.949219 120.289062 221.953125 126.019531 C 222.394531 127.292969 222.492188 128.171875 221.074219 128.859375 C 219.851562 129.59375 219.21875 130.914062 218.144531 131.992188 M 203.777344 98.0625 C 203.484375 95.617188 203.046875 93.804688 202.703125 92.140625 C 202.363281 90.476562 202.070312 89.054688 201.09375 87.339844 C 198.699219 95.664062 195.960938 103.890625 193.765625 112.308594 C 197.085938 110.988281 199.578125 109.960938 201.875 107.21875 C 202.65625 106.289062 203.582031 104.332031 203.679688 103.15625 C 203.828125 101.292969 204.023438 100.121094 203.777344 98.0625 Z M 203.777344 98.0625 "/>
<path style=" stroke:none;fill-rule:nonzero;fill:rgb(100%,87.058824%,96.470588%);fill-opacity:1;" d="M 118.71875 86.949219 C 114.761719 90.476562 114.957031 95.859375 119.113281 98.992188 C 121.992188 101.148438 125.460938 102.128906 128.6875 103.644531 C 131.472656 104.964844 134.304688 106.042969 137.042969 107.464844 C 142.710938 110.5 145.835938 115.148438 145.640625 121.613281 C 145.445312 128.90625 141.683594 134.046875 134.941406 136.542969 C 125.21875 140.117188 116.035156 138.550781 107.875 132.136719 C 104.0625 129.152344 104.453125 129.886719 107.433594 126.410156 C 109.242188 124.304688 109.242188 124.355469 111.539062 126.117188 C 117.402344 130.570312 123.851562 132.53125 131.128906 130.375 C 134.5 129.347656 136.847656 127.144531 137.382812 123.570312 C 137.96875 119.703125 136.554688 116.714844 133.085938 114.757812 C 129.371094 112.652344 125.316406 111.136719 121.457031 109.371094 C 118.523438 108.050781 115.546875 106.828125 113.101562 104.671875 C 105.089844 97.769531 106.3125 85.433594 115.59375 80.390625 C 123.558594 76.082031 131.570312 76.914062 139.238281 81.320312 C 142.074219 82.984375 143.148438 82.984375 140.609375 86.605469 C 140.316406 87.046875 140.121094 87.585938 139.972656 88.074219 C 139.339844 90.035156 139.289062 90.082031 137.578125 88.761719 C 135.085938 86.804688 132.253906 85.480469 129.128906 84.992188 C 125.511719 84.453125 121.945312 84.601562 118.71875 86.949219 Z M 118.71875 86.949219 "/>
<path style=" stroke:none;fill-rule:nonzero;fill:rgb(74.901961%,83.529412%,100%);fill-opacity:1;" d="M 233.238281 81.613281 C 233.335938 79.65625 233.921875 79.019531 235.632812 78.824219 C 236.855469 78.726562 238.078125 78.675781 239.296875 78.628906 C 241.007812 78.628906 241.203125 78.824219 241.203125 80.535156 C 241.203125 94.246094 241.203125 107.953125 241.203125 121.613281 C 241.203125 126.261719 241.152344 130.867188 241.253906 135.515625 C 241.253906 136.789062 240.859375 137.277344 239.589844 137.179688 C 237.929688 137.082031 236.269531 137.132812 234.609375 137.179688 C 233.582031 137.230469 233.191406 136.789062 233.238281 135.808594 C 233.289062 134.441406 233.238281 133.070312 233.238281 131.699219 C 233.238281 115.050781 233.238281 98.40625 233.238281 81.613281 Z M 233.238281 81.613281 "/>
<path style=" stroke:none;fill-rule:nonzero;fill:rgb(77.254902%,89.019608%,82.352941%);fill-opacity:1;" d="M 85.253906 75.347656 C 82.175781 76.082031 79.441406 77.304688 77.144531 79.363281 C 76.851562 79.65625 76.558594 80.097656 76.019531 79.898438 C 75.433594 79.703125 75.53125 79.117188 75.53125 78.628906 C 75.191406 70.695312 81.148438 63.695312 89.359375 62.324219 C 92.386719 61.835938 95.269531 62.324219 97.90625 63.890625 C 99.617188 64.871094 100.105469 66.144531 99.667969 68.101562 C 98.640625 72.554688 96.785156 74.121094 92.289062 74.613281 C 89.992188 74.90625 87.648438 74.710938 85.253906 75.347656 Z M 85.253906 75.347656 "/>
<path style=" stroke:none;fill-rule:nonzero;fill:rgb(74.901961%,83.529412%,100%);fill-opacity:1;" d="M 174.125 114.757812 C 173.144531 116.324219 172.070312 117.792969 170.214844 117.84375 C 165.085938 117.941406 159.90625 117.890625 154.726562 117.890625 C 153.652344 117.890625 153.261719 117.402344 153.261719 116.375 C 153.3125 115.296875 153.410156 114.21875 153.3125 113.144531 C 153.214844 111.917969 153.75 111.625 154.824219 111.625 C 160.199219 111.675781 165.523438 111.625 170.898438 111.625 C 170.996094 111.625 171.09375 111.625 171.191406 111.625 C 174.464844 111.675781 174.125 111.378906 174.125 114.757812 Z M 174.125 114.757812 "/>
<path style=" stroke:none;fill-rule:nonzero;fill:rgb(77.254902%,89.019608%,82.352941%);fill-opacity:1;" d="M 73.675781 79.949219 C 71.183594 78.136719 69.132812 76.082031 68.203125 73.09375 C 67.8125 71.917969 67.8125 70.695312 68.253906 69.519531 C 68.691406 68.492188 69.328125 67.613281 70.597656 67.660156 C 71.867188 67.710938 72.601562 68.589844 72.894531 69.765625 C 73.382812 71.625 73.285156 73.535156 73.578125 75.394531 C 73.773438 76.472656 73.917969 77.597656 74.113281 78.675781 C 74.210938 79.164062 74.40625 79.65625 73.675781 79.949219 Z M 73.675781 79.949219 "/>
</g>
</svg>
