<?xml version="1.0" encoding="utf-8"?>
<!-- Generator: Adobe Adobe Illustrator 24.2.0, SVG Export Plug-In . SVG Version: 6.00 Build 0)  -->
<svg version="1.1" id="Layer_1" xmlns="http://www.w3.org/2000/svg" xmlns:xlink="http://www.w3.org/1999/xlink" x="0px" y="0px"
	 width="612px" height="480px" viewBox="0 0 612 480" style="enable-background:new 0 0 612 480;" xml:space="preserve">
<style type="text/css">
	.st0{fill:#FFDEF6;}
	.st1{fill:#BFD5FF;}
	.st2{fill:#C5E3D2;}
</style>
<g id="Layer_2">
</g>
<path class="st0" d="M202,234.6c0.4,1.4,1,2.3,2.1,3c8,5,8,13.8,0,18.6c-1.8,1.1-2.9,2.5-3.9,4.3c-6.3,11-15.6,17.7-28.3,19
	c-16.5,1.6-33,0.4-49.5,0.7c-2.4,0.1-2.8-1.2-2.8-3.2c0-6,0-11.9,0-17.9c0-28.3,0-56.6-0.1-84.8c0-1.1-0.3-2.2,1-3
	c4.2,2.3,8.4,4.7,12.7,7c9.3,4.9,18.9,9.4,29.1,12.1c2.2,0.6,4.4,1.2,6.7,1.5c1.9,0.3,2.6,1.2,2.6,3c0.1,2.7,0.6,5.3,0.2,8
	c-0.2,1.2-0.5,2.6,0.7,4c4.3-1.9,6.9-5.4,7.6-9.8c0.6-3.4,2-4.6,5.2-4.4c2.8,0.2,5.5-0.8,8.2-1.3c3.1-0.5,3.5-0.2,3.1,3
	c-1.3,8.5-5.1,15.4-12.6,20c-0.7,0.4-1.3,0.9-2,1.3c-0.1,0.1-0.2,0.3-0.5,0.9C191,219.5,198.7,224.5,202,234.6 M179.4,235.9
	c-2.3-0.9-4.8-1.3-7.3-1.6c-1.9-0.2-3.1,0.6-3,2.7c0.3,6.9,0.2,13.7-0.5,20.6c-0.3,2.7,1.2,3.5,3.4,3c3.7-0.7,7-2.1,9.7-5
	C187.2,249.7,186.2,239.5,179.4,235.9z"/>
<path class="st1" d="M446.5,269.6c-3.8,1.8-4.7,1.4-5.8-2.2c-1.6-5.1-3.2-10.3-4.8-15.4c-1.6-5.1-3.6-6.7-9-7.2
	c-11.1-1-22.3-0.2-33.4-0.5c-2.1-0.1-2.8,1.1-3.3,2.7c-2.1,6.5-4.2,13.1-6.3,19.6c-1.2,3.7-2.4,7.4-3.5,11.1
	c-0.5,1.8-1.5,2.6-3.4,2.5c-4.3-0.1-8.5,0-12.6,0c-1.1-1.3-0.5-2.3-0.1-3.3c6.7-19.9,13.5-39.8,20.2-59.7
	c5.9-17.4,11.8-34.9,17.5-52.4c1-3,2.1-4.5,5.6-4.2c3.3,0.3,6.8,0,10.1-0.2c2.7-0.2,4.1,0.7,5,3.4c6.5,19.5,13,38.9,19.6,58.3
	c4,11.8,7.9,23.6,12,35.3c0.9,2.6,1.1,4.4-1.8,5.8C450,264.7,448.7,267.4,446.5,269.6 M417.1,200.3c-0.6-5-1.5-8.7-2.2-12.1
	c-0.7-3.4-1.3-6.3-3.3-9.8c-4.9,17-10.5,33.8-15,51c6.8-2.7,11.9-4.8,16.6-10.4c1.6-1.9,3.5-5.9,3.7-8.3
	C417.2,206.9,417.6,204.5,417.1,200.3z"/>
<path class="st0" d="M243,177.6c-8.1,7.2-7.7,18.2,0.8,24.6c5.9,4.4,13,6.4,19.6,9.5c5.7,2.7,11.5,4.9,17.1,7.8
	c11.6,6.2,18,15.7,17.6,28.9c-0.4,14.9-8.1,25.4-21.9,30.5c-19.9,7.3-38.7,4.1-55.4-9c-7.8-6.1-7-4.6-0.9-11.7
	c3.7-4.3,3.7-4.2,8.4-0.6c12,9.1,25.2,13.1,40.1,8.7c6.9-2.1,11.7-6.6,12.8-13.9c1.2-7.9-1.7-14-8.8-18c-7.6-4.3-15.9-7.4-23.8-11
	c-6-2.7-12.1-5.2-17.1-9.6c-16.4-14.1-13.9-39.3,5.1-49.6c16.3-8.8,32.7-7.1,48.4,1.9c5.8,3.4,8,3.4,2.8,10.8c-0.6,0.9-1,2-1.3,3
	c-1.3,4-1.4,4.1-4.9,1.4c-5.1-4-10.9-6.7-17.3-7.7C256.9,172.5,249.6,172.8,243,177.6z"/>
<path class="st1" d="M477.4,166.7c0.2-4,1.4-5.3,4.9-5.7c2.5-0.2,5-0.3,7.5-0.4c3.5,0,3.9,0.4,3.9,3.9c0,28,0,56,0,83.9
	c0,9.5-0.1,18.9,0.1,28.4c0,2.6-0.8,3.6-3.4,3.4c-3.4-0.2-6.8-0.1-10.2,0c-2.1,0.1-2.9-0.8-2.8-2.8c0.1-2.8,0-5.6,0-8.4
	C477.4,235,477.4,201,477.4,166.7z"/>
<path class="st2" d="M174.5,153.9c-6.3,1.5-11.9,4-16.6,8.2c-0.6,0.6-1.2,1.5-2.3,1.1c-1.2-0.4-1-1.6-1-2.6
	c-0.7-16.2,11.5-30.5,28.3-33.3c6.2-1,12.1,0,17.5,3.2c3.5,2,4.5,4.6,3.6,8.6c-2.1,9.1-5.9,12.3-15.1,13.3
	C184.2,153,179.4,152.6,174.5,153.9z"/>
<path class="st1" d="M356.4,234.4c-2,3.2-4.2,6.2-8,6.3c-10.5,0.2-21.1,0.1-31.7,0.1c-2.2,0-3-1-3-3.1c0.1-2.2,0.3-4.4,0.1-6.6
	c-0.2-2.5,0.9-3.1,3.1-3.1c11,0.1,21.9,0,32.9,0c0.2,0,0.4,0,0.6,0C357.1,228.1,356.4,227.5,356.4,234.4z"/>
<path class="st2" d="M150.8,163.3c-5.1-3.7-9.3-7.9-11.2-14c-0.8-2.4-0.8-4.9,0.1-7.3c0.9-2.1,2.2-3.9,4.8-3.8
	c2.6,0.1,4.1,1.9,4.7,4.3c1,3.8,0.8,7.7,1.4,11.5c0.4,2.2,0.7,4.5,1.1,6.7C151.9,161.7,152.3,162.7,150.8,163.3z"/>
</svg>
